# xmcd
#
# Track frame offsets: 
#        150
#        13229
#        28940
#        43962
#        63858
#        74039
#        103530
#        114722
#        126399
#        139275
#        155026
#        166124
#        181266
#        197163
#
# Disc length: 3189 seconds
#
# Revision: 0
# Processed by: cddbd v1.5.2PL0 Copyright (c) Steve Scherf et al.
# Submitted via: ExactAudioCopyFreeDBPlugin 1.0
#
DISCID=d60c730e
DTITLE=Pony Express - The Final Countdown
DYEAR=2017
DGENRE=
TTITLE0=Ghostriders in the sky
TTITLE1=A little bit is better than nada
TTITLE2=High horse woman
TTITLE3=Copperhead Road
TTITLE4=His latest flame
TTITLE5=Hotel California
TTITLE6=East bounded down
TTITLE7=If the devil dance in empty pocket
TTITLE8=Blue moon of Kentucky
TTITLE9=Country Roads
TTITLE10=Some days you gotta dance
TTITLE11=If tomorrow never comes
TTITLE12=Sharp dressed man
TTITLE13=Filmmelodien
EXTD=
EXTT0=
EXTT1=
EXTT2=
EXTT3=
EXTT4=
EXTT5=
EXTT6=
EXTT7=
EXTT8=
EXTT9=
EXTT10=
EXTT11=
EXTT12=
EXTT13=
PLAYORDER=
